<svg width="38" height="35" viewBox="0 0 38 35" fill="none" xmlns="http://www.w3.org/2000/svg">
<path d="M18.9736 32.0832C16.599 32.0894 14.2544 31.5905 12.1197 30.6248C11.3384 30.272 10.5898 29.8598 9.88162 29.3925L9.66645 29.2467C7.71867 27.9118 6.12621 26.1802 5.0113 24.1848C3.8581 22.1197 3.25998 19.8261 3.2679 17.4998C3.2679 9.44568 10.2996 2.9165 18.9736 2.9165C27.6476 2.9165 34.6793 9.44568 34.6793 17.4998C34.6872 19.825 34.0896 22.1175 32.9375 24.1819C31.8241 26.1761 30.2339 27.9071 28.2886 29.2423C27.5548 29.7411 26.7761 30.1802 25.9611 30.5548L25.8354 30.6132C23.6993 31.584 21.3519 32.0869 18.9736 32.0832ZM18.9736 24.7915C16.6201 24.7872 14.4624 26.0078 13.3871 27.9517C16.9074 29.5707 21.0399 29.5707 24.5601 27.9517V27.9444C23.4835 26.0026 21.3257 24.7848 18.9736 24.7915ZM18.9736 21.8748C22.3756 21.879 25.5125 23.5813 27.1861 26.3315L27.2096 26.3125L27.2316 26.295L27.2049 26.3169L27.1892 26.3286C31.1612 23.1423 32.5814 17.9991 30.7507 13.4312C28.92 8.86341 24.2242 5.83363 18.9752 5.83363C13.7262 5.83363 9.03037 8.86341 7.19965 13.4312C5.36894 17.9991 6.78919 23.1423 10.7611 26.3286C12.4358 23.5797 15.5723 21.8787 18.9736 21.8748ZM18.9736 20.4165C15.504 20.4165 12.6914 17.8048 12.6914 14.5832C12.6914 11.3615 15.504 8.74984 18.9736 8.74984C22.4432 8.74984 25.2559 11.3615 25.2559 14.5832C25.2559 16.1303 24.594 17.614 23.4158 18.708C22.2377 19.8019 20.6398 20.4165 18.9736 20.4165ZM18.9736 11.6665C17.2388 11.6665 15.8325 12.9723 15.8325 14.5832C15.8325 16.194 17.2388 17.4998 18.9736 17.4998C20.7084 17.4998 22.1147 16.194 22.1147 14.5832C22.1147 12.9723 20.7084 11.6665 18.9736 11.6665Z" fill="#00154B"/>
</svg>
